<?xml version="1.0" standalone="no"?><!DOCTYPE svg PUBLIC "-//W3C//DTD SVG 1.1//EN" "http://www.w3.org/Graphics/SVG/1.1/DTD/svg11.dtd"><svg t="1590108582452" class="icon" viewBox="0 0 1024 1024" version="1.1" xmlns="http://www.w3.org/2000/svg" p-id="40925" xmlns:xlink="http://www.w3.org/1999/xlink" width="200" height="200"><defs><style type="text/css"></style></defs><path d="M511.235451 1.533699C229.034752 1.533699 0.002301 230.566151 0.002301 512.76685s229.032451 511.23315 511.23315 511.23315 511.23315-229.032451 511.23315-511.23315S793.43615 1.533699 511.235451 1.533699zM579.22946 496.918622c-11.247129 51.634548-27.60659 102.757863-39.876186 154.392411-3.067399 12.780829-3.578632 28.629056 1.5337 39.876186 28.629056 63.392911 17.381927 86.398402-50.612082 100.712931-8.17973 1.533699-16.359461 2.556166-21.983026 3.578632-42.943585 0.511233-65.437843-26.584124-56.235646-69.016475 10.735896-47.544683 24.539191-95.089366 37.831253-142.122816 6.646031-24.027958 10.735896-44.477284-5.623565-69.016476-22.494259-34.763854-10.224663-62.370444 27.095357-77.707438 11.247129-4.601098 23.516725-7.668497 35.275087-10.735897 55.724413-11.758362 84.35347 13.803295 72.595108 70.038942z m-25.050425-146.212681c-32.207688 1.022466-58.791812-23.005492-61.347978-55.21318-2.556166-33.741388 24.027958-64.415377 57.769346-65.437843 32.207688-1.022466 63.392911 29.651523 62.370445 61.859211-1.022466 30.673989-27.60659 57.258113-58.791813 58.791812z" fill="#2B9CEE" p-id="40926"></path></svg>