<?xml version="1.0" standalone="no"?><!DOCTYPE svg PUBLIC "-//W3C//DTD SVG 1.1//EN" "http://www.w3.org/Graphics/SVG/1.1/DTD/svg11.dtd"><svg t="1590107979772" class="icon" viewBox="0 0 1024 1024" version="1.1" xmlns="http://www.w3.org/2000/svg" p-id="24639" xmlns:xlink="http://www.w3.org/1999/xlink" width="200" height="200"><defs><style type="text/css"></style></defs><path d="M912.1 250.5v523.2c0 21.1-7.6 39.2-22.6 54.3-15.1 15.1-33.2 22.6-54.3 22.6H189c-21.1 0-39.2-7.5-54.3-22.6s-22.6-33.2-22.6-54.3V250.5c0-21.1 7.5-39.2 22.6-54.3 15.1-15.1 33.2-22.6 54.3-22.6h646.3c21.1 0 39.2 7.6 54.3 22.6 14.9 14.9 22.5 33 22.5 54.3z m-554 153.7v-92.3c0-4.5-1.4-8.2-4.3-11-2.9-2.9-6.6-4.3-11-4.3H188.9c-4.5 0-8.2 1.4-11 4.3-2.9 2.9-4.3 6.6-4.3 11v92.3c0 4.5 1.4 8.2 4.3 11 2.9 2.9 6.6 4.3 11 4.3h153.9c4.5 0 8.2-1.4 11-4.3 2.9-2.8 4.3-6.5 4.3-11z m0 184.8v-92.3c0-4.5-1.4-8.2-4.3-11-2.9-2.9-6.6-4.3-11-4.3H188.9c-4.5 0-8.2 1.4-11 4.3-2.9 2.9-4.3 6.6-4.3 11V589c0 4.5 1.4 8.2 4.3 11 2.9 2.9 6.6 4.3 11 4.3h153.9c4.5 0 8.2-1.4 11-4.3 2.9-2.8 4.3-6.6 4.3-11z m0 184.6v-92.3c0-4.5-1.4-8.2-4.3-11-2.9-2.9-6.6-4.3-11-4.3H188.9c-4.5 0-8.2 1.4-11 4.3-2.9 2.9-4.3 6.6-4.3 11v92.3c0 4.5 1.4 8.2 4.3 11 2.9 2.9 6.6 4.3 11 4.3h153.9c4.5 0 8.2-1.4 11-4.3 2.9-2.9 4.3-6.5 4.3-11z m246.2-369.4v-92.3c0-4.5-1.4-8.2-4.3-11-2.9-2.9-6.6-4.3-11-4.3H435c-4.5 0-8.2 1.4-11 4.3-2.9 2.9-4.3 6.6-4.3 11v92.3c0 4.5 1.4 8.2 4.3 11 2.9 2.9 6.6 4.3 11 4.3h154c4.5 0 8.2-1.4 11-4.3 2.9-2.8 4.3-6.5 4.3-11z m0 184.8v-92.3c0-4.5-1.4-8.2-4.3-11-2.9-2.9-6.6-4.3-11-4.3H435c-4.5 0-8.2 1.4-11 4.3-2.9 2.9-4.3 6.6-4.3 11V589c0 4.5 1.4 8.2 4.3 11 2.9 2.9 6.6 4.3 11 4.3h154c4.5 0 8.2-1.4 11-4.3 2.9-2.8 4.3-6.6 4.3-11z m0 184.6v-92.3c0-4.5-1.4-8.2-4.3-11-2.9-2.9-6.6-4.3-11-4.3H435c-4.5 0-8.2 1.4-11 4.3-2.9 2.9-4.3 6.6-4.3 11v92.3c0 4.5 1.4 8.2 4.3 11 2.9 2.9 6.6 4.3 11 4.3h154c4.5 0 8.2-1.4 11-4.3 2.9-2.9 4.3-6.5 4.3-11z m246.2-369.4v-92.3c0-4.5-1.4-8.2-4.3-11-2.9-2.9-6.6-4.3-11-4.3H681.3c-4.5 0-8.2 1.4-11 4.3-2.9 2.9-4.3 6.6-4.3 11v92.3c0 4.5 1.4 8.2 4.3 11 2.9 2.9 6.6 4.3 11 4.3h153.9c4.5 0 8.2-1.4 11-4.3 2.9-2.8 4.3-6.5 4.3-11z m0 184.8v-92.3c0-4.5-1.4-8.2-4.3-11-2.9-2.9-6.6-4.3-11-4.3H681.3c-4.5 0-8.2 1.4-11 4.3-2.9 2.9-4.3 6.6-4.3 11V589c0 4.5 1.4 8.2 4.3 11 2.9 2.8 6.6 4.3 11 4.3h153.9c4.5 0 8.2-1.4 11-4.3s4.3-6.6 4.3-11z m0 184.6v-92.3c0-4.5-1.4-8.2-4.3-11-2.9-2.9-6.6-4.3-11-4.3H681.3c-4.5 0-8.2 1.4-11 4.3-2.9 2.9-4.3 6.6-4.3 11v92.3c0 4.5 1.4 8.2 4.3 11 2.9 2.9 6.6 4.3 11 4.3h153.9c4.5 0 8.2-1.4 11-4.3 2.9-2.9 4.3-6.5 4.3-11z" fill="#1296db" p-id="24640"></path></svg>