<?xml version="1.0" standalone="no"?><!DOCTYPE svg PUBLIC "-//W3C//DTD SVG 1.1//EN" "http://www.w3.org/Graphics/SVG/1.1/DTD/svg11.dtd"><svg t="1590108230291" class="icon" viewBox="0 0 1024 1024" version="1.1" xmlns="http://www.w3.org/2000/svg" p-id="31086" xmlns:xlink="http://www.w3.org/1999/xlink" width="200" height="200"><defs><style type="text/css"></style></defs><path d="M212.992 122.88h557.056C843.776 122.88 901.12 180.224 901.12 253.952v557.056c0 73.728-57.344 131.072-131.072 131.072H212.992C139.264 942.08 81.92 884.736 81.92 811.008V253.952C81.92 180.224 139.264 122.88 212.992 122.88z" fill="#2274FF" p-id="31087"></path><path d="M684.032 561.152H299.008c-16.384 0-28.672 12.288-28.672 28.672 0 8.192 4.096 16.384 8.192 20.48 0 4.096 4.096 4.096 8.192 4.096l143.36 98.304c4.096 4.096 12.288 4.096 16.384 4.096 8.192 0 20.48-4.096 24.576-12.288 4.096-8.192 8.192-16.384 4.096-20.48 0-8.192-4.096-16.384-12.288-20.48L393.216 614.4h290.816c16.384 0 28.672-12.288 28.672-28.672s-12.288-24.576-28.672-24.576zM299.008 503.808h385.024c16.384 0 28.672-12.288 28.672-28.672 0-8.192-4.096-16.384-8.192-20.48 0-4.096-4.096-4.096-8.192-4.096l-143.36-98.304c-12.288-8.192-32.768-8.192-40.96 8.192-4.096 8.192-8.192 16.384-4.096 20.48 0 8.192 4.096 16.384 12.288 20.48l69.632 49.152H299.008c-16.384 0-28.672 12.288-28.672 28.672s12.288 24.576 28.672 24.576z" fill="#FFFFFF" p-id="31088"></path></svg>