<?xml version="1.0" standalone="no"?><!DOCTYPE svg PUBLIC "-//W3C//DTD SVG 1.1//EN" "http://www.w3.org/Graphics/SVG/1.1/DTD/svg11.dtd"><svg t="1590107736229" class="icon" viewBox="0 0 1024 1024" version="1.1" xmlns="http://www.w3.org/2000/svg" p-id="21755" xmlns:xlink="http://www.w3.org/1999/xlink" width="200" height="200"><defs><style type="text/css"></style></defs><path d="M511.219802 531.069358a64.511057 64.511057 0 0 1-47.024543-19.376947 63.408304 63.408304 0 0 1-19.534484-46.630703V67.046602c0-18.116658 6.537751-33.870274 19.534484-47.103312A63.487072 63.487072 0 0 1 511.219802 0.093734a64.589825 64.589825 0 0 1 48.048529 19.849556 64.826129 64.826129 0 0 1 19.455715 47.103312v398.015106c0 18.116658-6.458983 33.712738-19.534483 46.709471a65.692578 65.692578 0 0 1-47.969761 19.298179m271.198498-386.436198c31.113391 21.818758 59.4699 47.260848 84.439381 75.932429 24.654409 28.277741 45.685486 58.760987 63.329536 91.607276 35.445636 66.401491 53.877366 140.443486 53.798599 215.74577a448.978053 448.978053 0 0 1-37.414838 182.741945 477.492098 477.492098 0 0 1-101.29575 148.714134 482.060647 482.060647 0 0 1-149.974424 100.586837 459.060368 459.060368 0 0 1-184.081002 37.178534 456.776093 456.776093 0 0 1-183.135785-37.178534 487.574412 487.574412 0 0 1-150.447032-100.586837A466.307031 466.307031 0 0 1 76.420003 710.66058 455.2795 455.2795 0 0 1 39.399006 527.997403c0-37.020997 4.411012-73.254314 13.154269-108.936254 8.664489-35.130563 21.267381-69.31591 37.572374-101.610823 16.304992-32.294913 36.548389-62.541855 60.100045-90.031914a513.174038 513.174038 0 0 1 80.185905-75.459821 65.61381 65.61381 0 0 1 50.175266-12.602892 66.480259 66.480259 0 0 1 43.795053 26.22977 61.990479 61.990479 0 0 1 12.602892 49.151282 65.850114 65.850114 0 0 1-26.308538 44.110124 326.414922 326.414922 0 0 0-137.213995 269.07176c0 46.079327 8.822025 89.559306 26.387307 130.361172 17.013905 39.935416 41.510778 76.247501 72.309097 106.888284 31.034623 30.640783 67.504244 55.137656 107.597197 72.230329 41.195706 17.880354 85.069526 26.781147 131.542692 26.781147 46.315631 0 90.189451-8.979561 131.306389-26.781147a342.956218 342.956218 0 0 0 180.45767-179.118613 320.428548 320.428548 0 0 0 26.938683-130.361172 329.329341 329.329341 0 0 0-38.044982-154.464204 327.911515 327.911515 0 0 0-106.573212-119.885017 62.856927 62.856927 0 0 1-27.962668-42.928603 65.692578 65.692578 0 0 1 54.349975-77.035182 67.031636 67.031636 0 0 1 50.647875 11.027531" fill="#0091FF" p-id="21756"></path></svg>