<?xml version="1.0" standalone="no"?><!DOCTYPE svg PUBLIC "-//W3C//DTD SVG 1.1//EN" "http://www.w3.org/Graphics/SVG/1.1/DTD/svg11.dtd"><svg t="1590107600048" class="icon" viewBox="0 0 1084 1024" version="1.1" xmlns="http://www.w3.org/2000/svg" p-id="17837" xmlns:xlink="http://www.w3.org/1999/xlink" width="211.71875" height="200"><defs><style type="text/css"></style></defs><path d="M997.255529 518.625882a37.466353 37.466353 0 0 0-37.767529 37.225412v294.731294a50.115765 50.115765 0 0 1-50.296471 49.694118H175.043765a50.115765 50.115765 0 0 1-50.296471-49.694118V167.936c0-27.346824 22.588235-49.694118 50.296471-49.694118h322.138353a37.466353 37.466353 0 0 0 37.707294-37.225411 37.406118 37.406118 0 0 0-37.707294-37.225412H175.043765C105.712941 43.791059 49.272471 99.448471 49.272471 167.936v682.646588c0 68.487529 56.440471 124.084706 125.771294 124.084706h734.147764c69.330824 0 125.771294-55.597176 125.771295-124.084706V555.851294a37.466353 37.466353 0 0 0-37.707295-37.225412z m-783.661176 182.272c120.952471-110.290824 242.928941-280.816941 458.631529-269.854117 15.239529 0.843294 27.105882 12.348235 27.105883 27.105882v72.222118c-0.120471 22.708706 27.286588 35.358118 45.537882 21.082353l279.672471-218.172236a26.322824 26.322824 0 0 0-0.120471-41.984L746.134588 49.814588c-18.311529-14.215529-46.802824-1.626353-46.923294 20.961883v73.125647c0 13.733647-9.637647 23.672471-23.67247 26.74447-371.230118 81.679059-465.076706 501.398588-461.884236 530.251294z" fill="#168BF5" p-id="17838"></path></svg>