<?xml version="1.0" standalone="no"?><!DOCTYPE svg PUBLIC "-//W3C//DTD SVG 1.1//EN" "http://www.w3.org/Graphics/SVG/1.1/DTD/svg11.dtd"><svg t="1590108359986" class="icon" viewBox="0 0 1025 1024" version="1.1" xmlns="http://www.w3.org/2000/svg" p-id="34347" xmlns:xlink="http://www.w3.org/1999/xlink" width="200.1953125" height="200"><defs><style type="text/css"></style></defs><path d="M304.778403 918.511746c-28.330667 0-51.313778-22.999365-51.313778-51.305651L253.464625 475.834921l-43.219302 44.617143c-9.29727 9.597968-22.779937 15.083683-37.02654 15.08368299-13.734603 0-26.298921-4.908698-35.514921-13.77523799L15.587799 403.781079c-9.858032-9.451683-15.384381-22.25981-15.587556-36.018794-0.25193701-13.693968 4.827429-26.640254 14.336-36.522667l191.934984-198.647873c26.160762-27.095365 36.408889-27.095365 41.894603-27.09536499L369.022212 105.496381c31.085714 0 37.774222 2.039873 44.511492 9.06158699l7.054222 7.25739701-0.357587 10.256254c0 23.28381 8.809651 43.43873 25.461841 58.181079 16.505905 14.61231699 40.090413 22.658032 66.348698 22.658032 54.044444 0 91.76990499-33.19873 91.769905-80.76596799l0-9.45168301 6.639746-8.045714 0.032508-0.097524c6.81854-7.021714 13.442032-9.06158701 44.535873-9.061587l120.888889 0c5.49384101 0 15.79073 0 41.90273 27.119746l191.934984 198.623492c9.45981 9.83365101 14.60419 22.812444 14.35225401 36.522667-0.26819 13.783365-5.79454 26.567111-15.60381001 36.067556l-122.107937 117.914413c-9.557333 9.248508-22.17854001 14.360381-35.620571 14.360381-13.889016 0-27.314794-5.672635-36.872127-15.595683l-43.162413-44.665905-0.097524 391.354921c0 28.306286-23.06438099 51.305651-51.313778 51.305651L304.778403 918.495492 304.778403 918.511746 304.778403 918.511746 304.778403 918.511746z" fill="#1296db" p-id="34348"></path></svg>