<?xml version="1.0" standalone="no"?><!DOCTYPE svg PUBLIC "-//W3C//DTD SVG 1.1//EN" "http://www.w3.org/Graphics/SVG/1.1/DTD/svg11.dtd"><svg t="1590108376367" class="icon" viewBox="0 0 1024 1024" version="1.1" xmlns="http://www.w3.org/2000/svg" p-id="35706" xmlns:xlink="http://www.w3.org/1999/xlink" width="200" height="200"><defs><style type="text/css"></style></defs><path d="M338.8928 727.3472V203.3664c-105.1136 0-169.984 74.3936-193.4848 222.5664l-43.0592-14.5408L120.2176 153.6h581.0176l14.5408 254.976-39.68 17.8688c-33.536-145.9712-100.6592-219.7504-200.7552-222.5664v527.36c-7.2704 67.1232 24.064 100.6592 93.3888 100.6592v35.84H245.504v-35.84c69.376 4.4544 100.6592-30.208 93.3888-104.5504z" fill="#3FA6F6" p-id="35707"></path><path d="M691.2 782.08V462.2336c-64.3072 0-103.424 45.312-118.528 135.8848l-26.2656-8.96 11.1616-157.696h355.072L921.6 586.9056l-24.064 11.1616q-31.0272-133.12-122.4704-135.8848v322.0992c-4.4544 40.96 14.5408 61.44 57.0368 61.44v21.8112h-197.9392v-21.8112c42.496 2.3552 61.5424-18.3296 57.0368-63.6416z" fill="#8DD1FF" p-id="35708"></path></svg>